<svg width="50" height="50" viewBox="0 0 50 50" fill="none" xmlns="http://www.w3.org/2000/svg">
<path d="M16.4562 39.6158C16.4562 39.8192 16.2281 39.982 15.9404 39.982C15.6131 40.0125 15.3849 39.8498 15.3849 39.6158C15.3849 39.4123 15.6131 39.2495 15.9007 39.2495C16.1983 39.219 16.4562 39.3818 16.4562 39.6158ZM13.3713 39.158C13.3019 39.3614 13.5002 39.5954 13.7978 39.6565C14.0557 39.7582 14.3533 39.6565 14.4128 39.453C14.4723 39.2495 14.2839 39.0155 13.9863 38.924C13.7284 38.8528 13.4407 38.9545 13.3713 39.158ZM17.7556 38.985C17.468 39.0562 17.2696 39.2495 17.2994 39.4835C17.3291 39.687 17.587 39.8192 17.8846 39.748C18.1723 39.6768 18.3706 39.4835 18.3409 39.28C18.3111 39.0867 18.0433 38.9545 17.7556 38.985ZM24.2826 0C10.5244 0 0 10.7127 0 24.8234C0 36.1059 6.92371 45.7606 16.8133 49.1586C18.083 49.3925 18.5294 48.5888 18.5294 47.9276C18.5294 47.2968 18.4996 43.8174 18.4996 41.681C18.4996 41.681 11.556 43.207 10.0979 38.6493C10.0979 38.6493 8.9671 35.6888 7.34032 34.9258C7.34032 34.9258 5.06879 33.3285 7.49903 33.359C7.49903 33.359 9.96895 33.5625 11.3279 35.9838C13.5002 39.9108 17.1406 38.7815 18.5591 38.1101C18.7873 36.4823 19.432 35.3531 20.1462 34.6816C14.6013 34.0508 9.00677 33.2268 9.00677 23.4398C9.00677 20.6421 9.76065 19.2382 11.3477 17.4476C11.0898 16.7863 10.2467 14.0598 11.6056 10.5398C13.6788 9.87851 18.45 13.2866 18.45 13.2866C20.4339 12.7169 22.5665 12.4219 24.6794 12.4219C26.7922 12.4219 28.9248 12.7169 30.9087 13.2866C30.9087 13.2866 35.6799 9.86833 37.7531 10.5398C39.112 14.07 38.2689 16.7863 38.011 17.4476C39.5981 19.2483 40.5702 20.6523 40.5702 23.4398C40.5702 33.2573 34.7277 34.0407 29.1827 34.6816C30.0953 35.4853 30.869 37.0113 30.869 39.4021C30.869 42.8306 30.8393 47.073 30.8393 47.9072C30.8393 48.5685 31.2956 49.3722 32.5553 49.1382C42.4747 45.7606 49.2 36.1059 49.2 24.8234C49.2 10.7127 38.0407 0 24.2826 0ZM9.64161 35.0885C9.51266 35.1903 9.54242 35.4243 9.71105 35.6176C9.86976 35.7803 10.0979 35.8516 10.2269 35.7193C10.3558 35.6176 10.326 35.3836 10.1574 35.1903C9.99871 35.0275 9.77056 34.9563 9.64161 35.0885ZM8.57032 34.2645C8.50089 34.3967 8.60008 34.5595 8.79847 34.6613C8.95718 34.763 9.15556 34.7325 9.225 34.59C9.29444 34.4578 9.19524 34.295 8.99685 34.1933C8.79847 34.1322 8.63976 34.1627 8.57032 34.2645ZM11.7842 37.8863C11.6255 38.0185 11.685 38.3237 11.9131 38.517C12.1413 38.751 12.429 38.7815 12.5579 38.6188C12.6869 38.4865 12.6273 38.1813 12.429 37.988C12.2107 37.754 11.9131 37.7235 11.7842 37.8863ZM10.6534 36.3908C10.4947 36.4925 10.4947 36.757 10.6534 36.991C10.8121 37.225 11.0799 37.3267 11.2089 37.225C11.3676 37.0927 11.3676 36.8282 11.2089 36.5942C11.07 36.3602 10.8121 36.2585 10.6534 36.3908Z" fill="white"/>
</svg>
