<svg width="50" height="50" viewBox="0 0 50 50" fill="none" xmlns="http://www.w3.org/2000/svg">
<path d="M11.0129 49.2H0.812679V16.3517H11.0129V49.2ZM5.90729 11.8709C2.6456 11.8709 0 9.1692 0 5.90743C2.33458e-08 4.34068 0.622374 2.8381 1.73021 1.73025C2.83804 0.622388 4.34058 0 5.90729 0C7.47401 0 8.97655 0.622388 10.0844 1.73025C11.1922 2.8381 11.8146 4.34068 11.8146 5.90743C11.8146 9.1692 9.16789 11.8709 5.90729 11.8709ZM49.189 49.2H39.0108V33.2096C39.0108 29.3988 38.9339 24.5116 33.7075 24.5116C28.4042 24.5116 27.5915 28.652 27.5915 32.9351V49.2H17.4023V16.3517H27.1852V20.8325H27.328C28.6898 18.2516 32.0162 15.528 36.9791 15.528C47.3023 15.528 49.2 22.3261 49.2 31.1559V49.2H49.189Z" fill="white"/>
</svg>
