<svg width="50" height="50" viewBox="0 0 50 50" fill="none" xmlns="http://www.w3.org/2000/svg">
<path d="M46.6515 29.4167C46.97 27.8789 47.1678 26.2422 47.1678 24.6055C47.1678 12.138 37.0729 2.05412 24.6164 2.05412C22.9797 2.05412 21.354 2.24086 19.8052 2.5704C17.7181 0.95566 15.1258 0 12.3027 0C5.51426 0 0 5.51427 0 12.3027C0 15.1258 0.955658 17.7182 2.55941 19.7942C2.24085 21.3321 2.04313 22.9688 2.04313 24.6055C2.04313 37.073 12.138 47.1569 24.5945 47.1569C26.2312 47.1569 27.8569 46.9701 29.4057 46.6406C31.4928 48.2443 34.0851 49.2 36.8972 49.2C43.6856 49.2 49.1999 43.6857 49.1999 36.8973C49.2109 34.0852 48.2552 31.4928 46.6515 29.4167ZM25.2755 39.4676C18.0696 39.4676 12.0391 36.2601 12.0391 32.3277C12.0391 30.5701 13.0277 28.9664 15.2795 28.9664C18.7067 28.9664 19.0253 33.8985 24.957 33.8985C27.78 33.8985 29.6034 32.6462 29.6034 31.0095C29.6034 28.9554 27.8459 28.6368 24.9899 27.9338C18.1245 26.2422 12.0501 25.5172 12.0501 18.3553C12.0501 11.8524 18.487 9.44675 24.0342 9.44675C30.0867 9.44675 36.2052 11.8524 36.2052 15.5322C36.2052 17.3886 34.9529 19.0253 32.8768 19.0253C29.7682 19.0253 29.6693 15.3455 24.6384 15.3455C21.8154 15.3455 20.0249 16.1144 20.0249 17.817C20.0249 19.992 22.3097 20.2117 27.6152 21.4419C32.1628 22.4635 37.5782 24.3858 37.5782 29.966C37.5782 36.4579 31.306 39.4676 25.2755 39.4676Z" fill="white"/>
</svg>
