<svg width="50" height="36" viewBox="0 0 50 36" fill="none" xmlns="http://www.w3.org/2000/svg">
<path d="M38.1 3.1C32.8 3.1 28.8 6.6 27.2 12.1C24.7 8.2 22.7 3.8 21.6 0H16V14.7C16 17.6 13.6 20 10.7 20C7.8 20 5.4 17.6 5.4 14.7V0.0999994H0V14.8C0 20.9 4.9 25.8 10.9 25.8C16.9 25.8 21.8 20.9 21.8 14.8V12.3C22.9 14.5 24.3 16.9 25.8 19L22.3 35.3H28L30.4 23.4C32.6 24.8 35.1 25.6 38.1 25.6C44.2 25.6 49.2 20.6 49.2 14.2C49.2 8.1 44.2 3.1 38.1 3.1ZM38.1 20C35.9 20 33.6 19 31.8 17.5L32.4 15.3V15.2C32.8 12.8 34.1 8.8 38.2 8.8C41.3 8.8 43.8 11.3 43.8 14.4C43.7 17.5 41 20 38.1 20Z" fill="white"/>
</svg>
