<svg width="50" height="50" viewBox="0 0 50 50" fill="none" xmlns="http://www.w3.org/2000/svg">
<path d="M43.6517 4.79085C42.3649 3.6667 37.1568 0.0828504 25.545 0.0348095C25.545 0.0348095 11.856 -0.743452 5.18887 5.05988C1.48039 8.57647 0.173304 13.7361 0.0314494 20.1255C-0.110405 26.5149 -0.282657 38.4867 11.8864 41.7343H11.8966L11.8864 46.6921C11.8864 46.6921 11.8054 48.7002 13.2036 49.1037C14.8856 49.6034 15.8786 48.0756 17.4897 46.4327C18.3712 45.5295 19.5871 44.2036 20.5091 43.1947C28.838 43.8577 35.2316 42.3396 35.9611 42.1186C37.6431 41.5997 47.1575 40.4468 48.6976 28.475C50.2986 16.1189 47.9276 8.31705 43.6517 4.79085ZM45.0601 27.5718C43.753 37.5643 36.0422 38.1985 34.6237 38.6308C34.0157 38.8134 28.3922 40.1393 21.3299 39.7069C21.3299 39.7069 16.061 45.7313 14.4195 47.2974C13.8825 47.8066 13.2948 47.7586 13.305 46.7497C13.305 46.0868 13.3455 38.5155 13.3455 38.5155C13.3354 38.5155 13.3354 38.5155 13.3455 38.5155C3.03065 35.806 3.6386 25.6118 3.75006 20.2792C3.86152 14.9467 4.92543 10.575 8.06649 7.63487C13.7103 2.78275 25.3322 3.50336 25.3322 3.50336C35.1505 3.54179 39.852 6.34738 40.9463 7.28898C44.5636 10.2291 46.4077 17.2623 45.0601 27.5718ZM30.976 19.8084C31.0165 20.6347 29.7094 20.6924 29.6689 19.8661C29.5574 17.7523 28.5138 16.7242 26.3657 16.6089C25.4943 16.5609 25.5754 15.3214 26.4366 15.3694C29.2636 15.5136 30.8341 17.0509 30.976 19.8084ZM33.0329 20.8941C33.1342 16.8203 30.4491 13.6304 25.3525 13.2749C24.4912 13.2172 24.5824 11.9778 25.4436 12.0354C31.3205 12.439 34.4514 16.2726 34.34 20.923C34.3298 21.7493 33.0126 21.7108 33.0329 20.8941ZM37.7951 22.1816C37.8052 23.0079 36.488 23.0175 36.488 22.1912C36.4272 14.3606 30.9253 10.0946 24.248 10.0465C23.3868 10.0369 23.3868 8.80707 24.248 8.80707C31.7156 8.85511 37.7242 13.7457 37.7951 22.1816ZM36.6501 31.6072V31.6265C35.5558 33.452 33.5091 35.4697 31.4015 34.826L31.3813 34.7972C29.2433 34.2303 24.2075 31.7706 21.0259 29.3685C19.3844 28.1387 17.8848 26.6879 16.7297 25.2947C15.6861 24.0552 14.6323 22.5852 13.6089 20.8173C11.4507 17.1181 10.9745 15.4655 10.9745 15.4655C10.2956 13.467 12.4133 11.5262 14.3486 10.4885H14.3689C15.3011 10.0273 16.1927 10.181 16.7905 10.8632C16.7905 10.8632 18.047 12.2852 18.584 12.9866C19.0906 13.64 19.7695 14.6873 20.1241 15.2734C20.7422 16.3207 20.3572 17.3872 19.7492 17.8291L18.5333 18.7515C17.9152 19.2223 17.9963 20.0967 17.9963 20.0967C17.9963 20.0967 19.7999 26.563 26.538 28.1964C26.538 28.1964 27.46 28.2732 27.9565 27.6871L28.9292 26.5341C29.3953 25.9576 30.52 25.5925 31.6244 26.1786C33.1139 26.9761 35.0087 28.2156 36.2651 29.3397C36.9744 29.8874 37.1365 30.7233 36.6501 31.6072Z" fill="white"/>
</svg>
