<svg width="50" height="50" viewBox="0 0 50 50" fill="none" xmlns="http://www.w3.org/2000/svg">
<path d="M41.831 7.14937C37.2295 2.53688 31.1014 0 24.589 0C11.1469 0 0.208661 10.9382 0.208661 24.3804C0.208661 28.6744 1.32884 32.8696 3.45938 36.5705L0 49.2L12.926 45.8065C16.4842 47.7504 20.4927 48.7717 24.578 48.7717H24.589C38.0202 48.7717 49.2 37.8335 49.2 24.3913C49.2 17.8789 46.4325 11.7619 41.831 7.14937ZM24.589 44.6644C20.9429 44.6644 17.3737 43.687 14.2658 41.842L13.53 41.4027L5.86446 43.4124L7.90714 35.9336L7.42393 35.1648C5.39223 31.9361 4.32696 28.2131 4.32696 24.3804C4.32696 13.2115 13.4202 4.1183 24.6 4.1183C30.0142 4.1183 35.0989 6.22687 38.9207 10.0596C42.7425 13.8924 45.0927 18.9771 45.0817 24.3913C45.0817 35.5712 35.7579 44.6644 24.589 44.6644ZM35.7029 29.4871C35.0989 29.1796 32.1008 27.7079 31.5407 27.5103C30.9806 27.3016 30.5743 27.2028 30.1679 27.8178C29.7616 28.4328 28.5975 29.7946 28.2351 30.2119C27.8837 30.6182 27.5213 30.6731 26.9172 30.3656C23.3371 28.5755 20.9869 27.1698 18.6257 23.1174C17.9997 22.0412 19.2517 22.118 20.4158 19.7898C20.6135 19.3835 20.5146 19.0321 20.3609 18.7246C20.2071 18.4171 18.9881 15.4189 18.4829 14.1999C17.9888 13.0138 17.4836 13.1786 17.1102 13.1566C16.7588 13.1346 16.3524 13.1346 15.9461 13.1346C15.5397 13.1346 14.8808 13.2884 14.3207 13.8924C13.7606 14.5074 12.1902 15.979 12.1902 18.9771C12.1902 21.9753 14.3756 24.8746 14.6721 25.2809C14.9796 25.6872 18.9662 31.8372 25.0832 34.4839C28.9489 36.1532 30.4645 36.296 32.3973 36.0104C33.5724 35.8347 35.9995 34.5388 36.5046 33.1112C37.0098 31.6835 37.0098 30.4645 36.8561 30.2119C36.7133 29.9373 36.307 29.7836 35.7029 29.4871Z" fill="white"/>
</svg>
